<?xml version="1.0" standalone="no"?>
<!DOCTYPE svg PUBLIC "-//W3C//DTD SVG 1.1//EN" "http://www.w3.org/Graphics/SVG/1.1/DTD/svg11.dtd" >
<svg xmlns="http://www.w3.org/2000/svg" xmlns:xlink="http://www.w3.org/1999/xlink" version="1.1">
<metadata></metadata>
<defs>
<font id="tt_normsextrabold" horiz-adv-x="1249" >
<font-face units-per-em="2048" ascent="1638" descent="-410" />
<missing-glyph horiz-adv-x="430" />
<glyph horiz-adv-x="0" />
<glyph horiz-adv-x="0" />
<glyph unicode="&#xd;" horiz-adv-x="0" />
<glyph unicode=" "  horiz-adv-x="430" />
<glyph unicode="&#x09;" horiz-adv-x="430" />
<glyph unicode="&#xa0;" horiz-adv-x="430" />
<glyph unicode="!" horiz-adv-x="716" d="M154 1434h409l-61 -983h-287zM164 164q0 78 55 131t139 53t139.5 -53t55.5 -131t-55.5 -131t-139.5 -53t-139 53t-55 131z" />
<glyph unicode="&#x22;" horiz-adv-x="942" d="M102 922v512h308v-512h-308zM532 922v512h308v-512h-308z" />
<glyph unicode="#" horiz-adv-x="1556" d="M31 348l51 246h246l51 246h-236l52 245h235l72 349h307l-72 -349h236l71 349h308l-72 -349h246l-51 -245h-246l-51 -246h235l-51 -246h-236l-71 -348h-307l71 348h-235l-72 -348h-307l71 348h-245zM635 594h235l52 246h-236z" />
<glyph unicode="$" d="M41 205l225 235q4 -6 14.5 -16t41 -37t64.5 -47.5t85 -36.5t102 -16q82 0 133.5 45t51.5 108q0 39 -37 68t-95.5 48t-130 40.5t-142 54.5t-129 79t-95.5 124t-37 180q0 143 106.5 263t282.5 161v180h328v-182q100 -23 182 -70t115 -81l31 -35l-226 -236 q-10 12 -29.5 30.5t-81 50.5t-124.5 32q-66 0 -110 -37t-44 -86q0 -39 37 -67.5t95.5 -48t129 -41t142 -54.5t130 -79t95.5 -124t37 -180q0 -158 -101.5 -279.5t-277.5 -166.5v-189h-328v174q-82 12 -156.5 42t-123.5 61.5t-87 62.5t-57 49z" />
<glyph unicode="%" horiz-adv-x="1761" d="M51 1116q0 139 108.5 243.5t260 104.5t260 -104.5t108.5 -243.5t-108.5 -243.5t-260 -104.5t-260 104.5t-108.5 243.5zM266 0l901 1434h328l-901 -1434h-328zM297 1116q0 -53 35 -88t88 -35t88 35t35 88t-35 88t-88 35t-88 -35t-35 -88zM973 317.5q0 139.5 108.5 244 t260 104.5t260 -104.5t108.5 -244t-108.5 -244t-260 -104.5t-260 104.5t-108.5 244zM1219 317.5q0 -53.5 34.5 -88t88 -34.5t88 34.5t34.5 88t-34.5 88t-88 34.5t-88 -34.5t-34.5 -88z" />
<glyph unicode="&#x26;" horiz-adv-x="1382" d="M72 358q0 74 28.5 143.5t68.5 116t81 82t69 52.5l29 16l-18 18q-13 13 -42.5 50.5t-53 75.5t-42 91.5t-18.5 102.5q0 150 118 259.5t292 109.5q180 0 300 -107.5t120 -251.5q0 -90 -59.5 -177t-117.5 -128l-59 -43l164 -195q51 61 51 154h328q0 -104 -31 -204.5 t-61 -147.5l-31 -47q41 -51 102 -52l51 11v-287q-72 -41 -163 -41q-74 0 -140.5 36t-95.5 71l-31 36q-14 -16 -40.5 -39.5t-123 -63.5t-204.5 -40q-209 0 -340 117t-131 282zM430 379q0 -61 37.5 -97t105.5 -36q45 0 86 18.5t60 34.5l18 18l-194 236q-12 -8 -30.5 -22.5 t-50.5 -60.5t-32 -91zM481 1085q0 -37 25.5 -77.5t50.5 -63.5l27 -22q102 81 102 163q0 45 -27.5 74t-74.5 29t-75 -29t-28 -74z" />
<glyph unicode="'" horiz-adv-x="512" d="M102 922v512h308v-512h-308z" />
<glyph unicode="(" horiz-adv-x="798" d="M123 512q0 166 38 330t92 278.5t108.5 204.5t93.5 135l37 45l266 -164q-10 -14 -29.5 -40.5t-67 -114.5t-84 -179.5t-66.5 -227.5t-30 -267t29 -265t68.5 -231.5t80.5 -175.5t70 -119l29 -38l-266 -164q-14 16 -40 47t-89.5 131t-111.5 208.5t-88 274.5t-40 332z" />
<glyph unicode=")" horiz-adv-x="798" d="M41 -317q10 14 29.5 40.5t66.5 114.5t84 179.5t66.5 227.5t29.5 267t-28.5 265t-69.5 231.5t-81 175.5t-68 119l-29 38l266 164q14 -16 40 -47t89.5 -131t111.5 -208.5t88 -274.5t40 -332t-38 -330t-92 -278.5t-108.5 -204.5t-93.5 -135l-37 -45z" />
<glyph unicode="*" horiz-adv-x="839" d="M41 1075l72 225l194 -71l-20 205h266l-21 -205l195 71l72 -225l-195 -51l133 -154l-194 -153l-123 184l-123 -184l-195 153l134 154z" />
<glyph unicode="+" horiz-adv-x="1085" d="M72 440v318h317v317h307v-317h318v-318h-318v-317h-307v317h-317z" />
<glyph unicode="," horiz-adv-x="583" d="M-10 -143l235 491l277 -164l-287 -450z" />
<glyph unicode="-" horiz-adv-x="890" d="M72 451v307h747v-307h-747z" />
<glyph unicode="." horiz-adv-x="552" d="M82 164q0 78 55.5 131t139 53t139 -53t55.5 -131t-55.5 -131t-139 -53t-139 53t-55.5 131z" />
<glyph unicode="/" horiz-adv-x="1075" d="M61 -430l615 1884h338l-615 -1884h-338z" />
<glyph unicode="0" horiz-adv-x="1454" d="M92 717q0 336 186.5 547t448.5 211t448.5 -211t186.5 -547t-186.5 -547t-448.5 -211t-448.5 211t-186.5 547zM481 717q0 -201 72 -305.5t174 -104.5t174 104.5t72 305.5t-72 305t-174 104t-174 -104t-72 -305z" />
<glyph unicode="1" horiz-adv-x="849" d="M61 1004v235q90 14 162 62.5t99 91.5l26 41h338v-1434h-389v1004h-236z" />
<glyph unicode="2" horiz-adv-x="1239" d="M51 1126q6 14 17.5 38t56.5 83.5t102.5 105.5t158.5 84t218 38q227 0 374.5 -137.5t147.5 -333.5q0 -104 -41 -187.5t-106.5 -141t-134 -103.5t-141 -99t-109.5 -104h532v-369h-1065q0 141 36 259t94.5 194.5t128 140t139 109t128 86t94.5 87t36 97.5q0 133 -154 133 q-59 0 -105 -34t-63 -66l-16 -33z" />
<glyph unicode="3" horiz-adv-x="1208" d="M20 195l226 235q12 -16 35.5 -39.5t98.5 -63.5t152 -40q88 0 141.5 45t53.5 108q0 57 -48 95t-136 38h-154v308h143q68 0 111 38.5t43 94t-43 94.5t-111 39q-63 0 -122.5 -28.5t-85.5 -57.5l-27 -27l-225 226q6 8 18 22t58.5 52t100.5 65.5t144 51.5t191 24 q229 0 370.5 -121t141.5 -289q0 -63 -21.5 -117.5t-51.5 -88.5t-59.5 -57.5t-50.5 -33.5l-22 -10q10 -4 26.5 -11.5t58.5 -36t74.5 -65.5t59.5 -102.5t27 -143.5q0 -176 -155 -308t-398 -132q-106 0 -202.5 24.5t-159 59.5t-111 68.5t-70.5 58.5z" />
<glyph unicode="4" horiz-adv-x="1280" d="M51 236v358l604 840h430v-871h154v-327h-154v-236h-389v236h-645zM399 563h297v420z" />
<glyph unicode="5" horiz-adv-x="1280" d="M82 195l225 235q12 -14 36 -34.5t95.5 -54.5t145.5 -34q98 0 151 48t53 126t-52 126t-142 48q-55 0 -101.5 -20.5t-64.5 -40.5l-18 -21l-267 41l52 820h921v-328h-573l-21 -205q82 41 215 41q201 0 331 -132t130 -339q0 -219 -156.5 -365.5t-406.5 -146.5 q-106 0 -202.5 24.5t-157 59.5t-106.5 68.5t-67 58.5z" />
<glyph unicode="6" horiz-adv-x="1300" d="M82 471q0 90 32.5 182t65.5 140l35 47l389 594h410l-297 -451q223 -23 367.5 -167t144.5 -345q0 -211 -163 -361.5t-410.5 -150.5t-410.5 150.5t-163 361.5zM471 471q0 -78 53.5 -131t131 -53t131 53t53.5 131t-53.5 131t-131 53t-131 -53t-53.5 -131z" />
<glyph unicode="7" horiz-adv-x="1136" d="M61 1085v349h1014v-308l-532 -1126h-410l512 1085h-584z" />
<glyph unicode="8" horiz-adv-x="1290" d="M82 420q0 70 23.5 130t56.5 99t65.5 66.5t55.5 40.5l24 12q-6 4 -18.5 11t-42 34t-53 58.5t-42 84t-18.5 109.5q0 162 145.5 286t366.5 124t366.5 -124t145.5 -286q0 -90 -44 -165t-87 -103l-43 -29q8 -4 23.5 -12t54.5 -39t68.5 -68t54 -98.5t24.5 -130.5 q0 -190 -154.5 -325.5t-408.5 -135.5t-408.5 135t-154.5 326zM461 440.5q0 -63.5 51 -108.5t133 -45t133 45t51 108.5t-51 108.5t-133 45t-133 -45t-51 -108.5zM492 1024q0 -49 43 -86t110.5 -37t110.5 37t43 86t-43 86t-110.5 37t-110.5 -37t-43 -86z" />
<glyph unicode="9" horiz-adv-x="1300" d="M72 963q0 211 162.5 361.5t410.5 150.5t411 -150.5t163 -361.5q0 -90 -34 -182.5t-67 -139.5l-33 -47l-389 -594h-409l297 451q-223 23 -367.5 167t-144.5 345zM461 962.5q0 -77.5 54 -131t130 -53.5t130 53.5t54 131t-54 131t-130 53.5t-130 -53.5t-54 -131z" />
<glyph unicode=":" horiz-adv-x="552" d="M82 164q0 78 55.5 131t139 53t139 -53t55.5 -131t-55.5 -131t-139 -53t-139 53t-55.5 131zM82 840q0 78 55.5 131t139 53t139 -53t55.5 -131t-55.5 -131.5t-139 -53.5t-139 53.5t-55.5 131.5z" />
<glyph unicode=";" horiz-adv-x="604" d="M-10 -143l235 491l277 -164l-287 -450zM133 840q0 78 55.5 131t139.5 53t139 -53t55 -131t-55 -131.5t-139 -53.5t-139.5 53.5t-55.5 131.5z" />
<glyph unicode="&#x3c;" horiz-adv-x="1064" d="M72 379v246l921 389v-318l-491 -194l491 -195v-317z" />
<glyph unicode="=" horiz-adv-x="1013" d="M72 246v286h870v-286h-870zM72 676v287h870v-287h-870z" />
<glyph unicode="&#x3e;" horiz-adv-x="1064" d="M72 -10v317l491 195l-491 194v318l921 -389v-246z" />
<glyph unicode="?" horiz-adv-x="1157" d="M31 1126q4 14 14 38t53 83.5t98.5 105.5t156 84t220.5 38q229 0 381 -131.5t152 -299.5q0 -100 -37 -180t-90 -132t-105.5 -95t-89 -90t-36.5 -96h-359q-20 51 -20 92q0 76 32.5 135t79.5 95t93.5 66.5t79 66.5t32.5 77q0 47 -37 80t-96 33q-43 0 -79 -12.5t-56.5 -31 t-34.5 -37t-18 -30.5l-7 -12zM348 164q0 78 55.5 131t139.5 53t139 -53t55 -131t-55 -131t-139 -53t-139.5 53t-55.5 131z" />
<glyph unicode="@" horiz-adv-x="1843" d="M102 512q0 332 241 570.5t579 238.5q348 0 583.5 -226.5t235.5 -541.5q0 -203 -100.5 -316.5t-258.5 -113.5q-76 0 -137 30.5t-86 61.5l-22 31q-8 -14 -25.5 -35t-83 -54.5t-147.5 -33.5q-147 0 -248 106.5t-101 272.5t96.5 272.5t231.5 106.5q49 0 93 -18.5t63 -35.5 l18 -18v61h236v-409q0 -45 31.5 -79t70.5 -34q123 0 123 205q0 227 -163 385t-410 158q-238 0 -411 -173t-173 -411t173 -411t411 -173q100 0 189 31t130 61l39 31l143 -164q-8 -8 -22.5 -20t-62.5 -44t-102 -56.5t-140 -44t-174 -19.5q-338 0 -579 238.5t-241 570.5z M768 501.5q0 -61.5 39 -102.5t94 -41t94 41t39 102.5t-39 102.5t-94 41t-94 -41t-39 -102.5z" />
<glyph unicode="A" horiz-adv-x="1515" d="M0 0l543 1434h430l543 -1434h-420l-103 307h-471l-102 -307h-420zM625 614h266l-133 420z" />
<glyph unicode="B" horiz-adv-x="1454" d="M164 0v1434h645q221 0 356 -113t135 -266q0 -59 -19 -112.5t-46 -85.5t-53.5 -55.5t-46.5 -33.5l-19 -10q10 -4 27.5 -11.5t61.5 -35t78 -62.5t61.5 -96t27.5 -133q0 -168 -146.5 -294t-375.5 -126h-686zM553 307h266q68 0 111 41t43 102.5t-43 102.5t-111 41h-266v-287z M553 881h215q61 0 97 33.5t36 89t-36 89t-97 33.5h-215v-245z" />
<glyph unicode="C" horiz-adv-x="1536" d="M82 717q0 311 232.5 534.5t566.5 223.5q115 0 219 -30t171.5 -72t118 -84t72.5 -72l23 -29l-236 -246q-6 8 -16 20.5t-46 44t-75 56t-102.5 44t-128.5 19.5q-176 0 -293 -116.5t-117 -292.5t117 -293t293 -117q109 0 206 46t140 93l43 46l225 -246q-8 -12 -23.5 -31.5 t-72 -69t-122 -87.5t-173 -68.5t-223.5 -30.5q-334 0 -566.5 223.5t-232.5 534.5z" />
<glyph unicode="D" horiz-adv-x="1556" d="M164 0v1434h553q328 0 543 -207t215 -510t-215.5 -510t-542.5 -207h-553zM553 348h164q150 0 259 105.5t109 263.5q0 162 -103 265t-265 103h-164v-737z" />
<glyph unicode="E" horiz-adv-x="1372" d="M164 0v1434h1106v-328h-717v-225h553v-308h-553v-245h737v-328h-1126z" />
<glyph unicode="F" horiz-adv-x="1331" d="M164 0v1434h1106v-349h-717v-235h553v-348h-553v-502h-389z" />
<glyph unicode="G" horiz-adv-x="1658" d="M82 717q0 311 232.5 534.5t566.5 223.5q115 0 219 -30t171.5 -72t118 -84t72.5 -72l23 -29l-236 -246q-6 8 -16 20.5t-46 44t-75 56t-102.5 44t-128.5 19.5q-176 0 -293 -116.5t-117 -292.5t117 -293t293 -117q74 0 135 22.5t86 47.5l24 22v154h-225v246h615v-553 q-8 -12 -27 -31.5t-79 -69t-129 -87.5t-177 -68.5t-223 -30.5q-334 0 -566.5 223.5t-232.5 534.5z" />
<glyph unicode="H" horiz-adv-x="1628" d="M164 0v1434h389v-533h522v533h389v-1434h-389v553h-522v-553h-389z" />
<glyph unicode="I" horiz-adv-x="716" d="M164 0v1434h389v-1434h-389z" />
<glyph unicode="J" horiz-adv-x="1075" d="M-20 143l235 236q51 -72 154 -72q70 0 116.5 51.5t46.5 133.5v942h390v-942q0 -238 -145.5 -385.5t-377.5 -147.5q-78 0 -149.5 19.5t-118.5 46t-83 53t-52 45.5z" />
<glyph unicode="K" horiz-adv-x="1495" d="M164 0v1434h389v-553l471 553h451l-512 -594l553 -840h-451l-358 543l-154 -174v-369h-389z" />
<glyph unicode="L" horiz-adv-x="1228" d="M164 0v1434h389v-1086h635v-348h-1024z" />
<glyph unicode="M" horiz-adv-x="1904" d="M164 0v1434h348l440 -564l441 564h348v-1434h-389v850l-400 -502l-399 502v-850h-389z" />
<glyph unicode="N" horiz-adv-x="1669" d="M164 0v1434h338l614 -799v799h389v-1434h-336l-616 799v-799h-389z" />
<glyph unicode="O" horiz-adv-x="1761" d="M82 717q0 311 232.5 534.5t566 223.5t566 -223.5t232.5 -534.5t-232.5 -534.5t-566 -223.5t-566 223.5t-232.5 534.5zM481 717q0 -176 115 -293t285 -117t284.5 117t114.5 293t-114.5 292.5t-284.5 116.5t-285 -116.5t-115 -292.5z" />
<glyph unicode="P" horiz-adv-x="1423" d="M164 0v1434h645q236 0 384 -142.5t148 -359.5t-148.5 -359.5t-383.5 -142.5h-256v-430h-389zM553 778h235q68 0 116 46t48 107.5t-48 107.5t-116 46h-235v-307z" />
<glyph unicode="Q" horiz-adv-x="1761" d="M82 717q0 311 232.5 534.5t566 223.5t566 -223.5t232.5 -534.5q0 -123 -38.5 -234.5t-94 -183.5t-112 -126t-95.5 -79l-39 -22q10 -14 31 -35t101.5 -54.5t185.5 -33.5h51v-307h-72q-125 0 -236.5 32.5t-181 78.5t-121.5 93.5t-75 79.5l-20 33h-82q-334 0 -566.5 223.5 t-232.5 534.5zM481 717q0 -176 115 -293t285 -117t284.5 117t114.5 293t-114.5 292.5t-284.5 116.5t-285 -116.5t-115 -292.5z" />
<glyph unicode="R" horiz-adv-x="1474" d="M164 0v1434h676q227 0 374.5 -141.5t147.5 -350.5q0 -86 -25.5 -160.5t-61.5 -121t-72 -79t-60 -44.5l-27 -15l297 -522h-409l-246 451h-205v-451h-389zM553 799h266q68 0 111 41t43 102.5t-43 102t-111 40.5h-266v-286z" />
<glyph unicode="S" d="M41 205l225 235q4 -6 14.5 -16t41 -37t64.5 -47.5t85 -36.5t102 -16q82 0 133.5 45t51.5 108q0 39 -37 68t-95.5 48t-130 40.5t-142 54.5t-129 79t-95.5 124t-37 180q0 176 152.5 308.5t390.5 132.5q98 0 185 -21.5t142.5 -51.5t97.5 -59.5t58 -52.5l19 -20l-226 -236 q-10 12 -29.5 30.5t-81 50.5t-124.5 32q-66 0 -110 -37t-44 -86q0 -39 37 -67.5t95.5 -48t129 -41t142 -54.5t130 -79t95.5 -124t37 -180q0 -199 -157 -335t-417 -136q-106 0 -204.5 25.5t-162 61.5t-112.5 72t-72 62z" />
<glyph unicode="T" horiz-adv-x="1269" d="M41 1085v349h1188v-349h-400v-1085h-389v1085h-399z" />
<glyph unicode="U" horiz-adv-x="1617" d="M154 594v840h389v-840q0 -121 78.5 -204t187.5 -83t187.5 83t78.5 204v840h389v-840q0 -270 -186 -452.5t-469 -182.5t-469 182.5t-186 452.5z" />
<glyph unicode="V" horiz-adv-x="1495" d="M20 1434h420l308 -983l307 983h420l-512 -1434h-431z" />
<glyph unicode="W" horiz-adv-x="2211" d="M20 1434h420l246 -871l256 871h328l256 -871l246 871h419l-471 -1434h-348l-266 829l-266 -829h-348z" />
<glyph unicode="X" horiz-adv-x="1454" d="M10 0l471 748l-430 686h430l246 -420l246 420h430l-430 -686l471 -748h-430l-287 481l-287 -481h-430z" />
<glyph unicode="Y" horiz-adv-x="1413" d="M0 1434h420l287 -553l286 553h420l-512 -922v-512h-389v512z" />
<glyph unicode="Z" horiz-adv-x="1351" d="M92 0v348l635 737h-604v349h1116v-349l-635 -737h656v-348h-1168z" />
<glyph unicode="[" horiz-adv-x="808" d="M164 -430v1884h573v-307h-225v-1270h225v-307h-573z" />
<glyph unicode="\" horiz-adv-x="1075" d="M61 1454h338l615 -1884h-338z" />
<glyph unicode="]" horiz-adv-x="808" d="M72 -123h225v1270h-225v307h573v-1884h-573v307z" />
<glyph unicode="^" horiz-adv-x="921" d="M51 809l277 625h266l276 -625h-286l-123 287l-123 -287h-287z" />
<glyph unicode="_" horiz-adv-x="716" d="M-20 -164h757v-317h-757v317z" />
<glyph unicode="`" horiz-adv-x="665" d="M61 1456h369l174 -330h-297z" />
<glyph unicode="a" horiz-adv-x="1126" d="M51 266q0 123 80 205t227 113l287 61q0 41 -37 72t-106 31q-59 0 -113.5 -26t-77.5 -50l-24 -27l-174 184q6 8 16 21.5t49 46.5t84 58.5t118 47t152 21.5q201 0 331 -118t130 -283v-623h-348v113q-10 -14 -30.5 -37t-89 -59.5t-146.5 -36.5q-143 0 -235.5 83.5 t-92.5 202.5zM399 328q1 -82 93 -82q63 0 108 49t45 125v31l-153 -31q-39 -8 -66 -35t-27 -57z" />
<glyph unicode="b" horiz-adv-x="1300" d="M123 0v1434h348v-553q4 6 11 15t34 33.5t57.5 44t79.5 35t105 15.5q188 0 324.5 -148.5t136.5 -374t-136.5 -373.5t-324.5 -148q-86 0 -158 35.5t-100 70.5l-29 37v-123h-348zM471 502q0 -90 58.5 -152.5t136 -62.5t136 62.5t58.5 152.5t-58.5 152.5t-136 62.5 t-136 -62.5t-58.5 -152.5z" />
<glyph unicode="c" horiz-adv-x="1105" d="M61 502q0 209 163 365.5t390 156.5q80 0 154 -21.5t122 -51t85 -59.5t53 -52l16 -21l-204 -215q-8 12 -23.5 30.5t-69 50.5t-112.5 32q-92 0 -153.5 -61.5t-61.5 -153.5t61.5 -153.5t153.5 -61.5q59 0 110.5 28.5t73.5 57.5l21 26l204 -215q-6 -8 -17 -22.5t-51 -49 t-86 -61t-121 -49t-155 -22.5q-227 0 -390 156.5t-163 365.5z" />
<glyph unicode="d" horiz-adv-x="1300" d="M61 501.5q0 225.5 136.5 374t324.5 148.5q86 0 158 -36t100 -70l29 -37v553h348v-1434h-348v123q-4 -6 -11 -15.5t-34 -34t-57.5 -44t-79.5 -34.5t-105 -15q-188 0 -324.5 148t-136.5 373.5zM420 502q0 -90 58.5 -152.5t136 -62.5t136 62.5t58.5 152.5t-58.5 152.5 t-136 62.5t-136 -62.5t-58.5 -152.5z" />
<glyph unicode="e" horiz-adv-x="1187" d="M61 502q0 215 156 368.5t377 153.5t371.5 -146.5t150.5 -355.5l-10 -112h-686q8 -59 71.5 -106.5t163.5 -47.5q63 0 119.5 25.5t81.5 50.5l25 26l153 -225q-6 -6 -18 -16.5t-53 -37t-86.5 -47t-117 -36.5t-145.5 -16q-236 0 -394.5 152.5t-158.5 369.5zM420 614h348 q-16 63 -61 103.5t-113 40.5t-113 -40t-61 -104z" />
<glyph unicode="f" horiz-adv-x="788" d="M41 655v308h133v102q0 190 94 289.5t264 99.5q49 0 100.5 -8t78.5 -16l26 -7v-297q-41 20 -102 21q-53 0 -83 -27.5t-30 -75.5v-81h215v-308h-215v-655h-348v655h-133z" />
<glyph unicode="g" horiz-adv-x="1269" d="M61 532.5q0 202.5 132.5 347t298.5 144.5q82 0 155.5 -36t106.5 -70l34 -37v123h349v-891q0 -225 -165 -384t-409 -159q-90 0 -171 22.5t-133 53t-92 62.5t-56 54l-19 23l195 195q8 -12 26.5 -31t82 -50.5t136.5 -31.5q115 0 185.5 68.5t70.5 177.5v71q-4 -6 -13 -15 t-37.5 -33.5t-61.5 -44t-83 -35t-101 -15.5q-166 0 -298.5 144.5t-132.5 347zM420 532.5q0 -77.5 54 -131t130 -53.5t130 53.5t54 126.5q0 80 -53 134.5t-131 54.5q-76 0 -130 -53.5t-54 -131z" />
<glyph unicode="h" horiz-adv-x="1259" d="M123 0v1434h348v-553q12 16 33.5 39.5t96.5 63.5t157 40q162 0 265 -119t103 -311v-594h-348v532q0 76 -40 120t-103 44q-72 0 -118 -52t-46 -142v-502h-348z" />
<glyph unicode="i" horiz-adv-x="614" d="M102 1300.5q0 77.5 55.5 131t139.5 53.5t139.5 -53.5t55.5 -131t-55.5 -131t-139.5 -53.5t-139.5 53.5t-55.5 131zM123 0v1004h348v-1004h-348z" />
<glyph unicode="j" horiz-adv-x="614" d="M-92 -92q51 -20 102 -21q47 0 80 34t33 79v1004h348v-1055q0 -176 -98.5 -277.5t-259.5 -101.5q-55 0 -106.5 8t-76.5 16l-22 7v307zM102 1300.5q0 77.5 55.5 131t139.5 53.5t139.5 -53.5t55.5 -131t-55.5 -131t-139.5 -53.5t-139.5 53.5t-55.5 131z" />
<glyph unicode="k" horiz-adv-x="1177" d="M123 0v1434h348v-779l297 349h399l-368 -431l379 -573h-379l-236 358l-92 -102v-256h-348z" />
<glyph unicode="l" horiz-adv-x="614" d="M123 0v1434h348v-1434h-348z" />
<glyph unicode="m" horiz-adv-x="1822" d="M113 0v1004h348v-123l10 15q6 9 29.5 33.5t51.5 44t72 35t93 15.5q90 0 161.5 -41t98.5 -82l27 -41q4 6 13 17.5t39.5 40t65.5 50t92.5 39t116.5 17.5q160 0 259.5 -114.5t99.5 -315.5v-594h-349v532q0 154 -133 154q-57 0 -95 -48t-38 -136v-502h-348v532 q0 154 -133 154q-57 0 -95 -48t-38 -136v-502h-348z" />
<glyph unicode="n" d="M113 0v1004h348v-123q12 16 33.5 39.5t96.5 63.5t157 40q162 0 265 -119t103 -311v-594h-348v532q0 76 -40 120t-103 44q-72 0 -118 -52t-46 -142v-502h-348z" />
<glyph unicode="o" d="M61 502q0 209 163 365.5t390.5 156.5t390 -156.5t162.5 -365.5t-162.5 -365.5t-390 -156.5t-390.5 156.5t-163 365.5zM420 502q0 -90 58.5 -152.5t136 -62.5t136 62.5t58.5 152.5t-58.5 152.5t-136 62.5t-136 -62.5t-58.5 -152.5z" />
<glyph unicode="p" horiz-adv-x="1290" d="M113 -430v1434h348v-123q4 6 11 15t33.5 33.5t57.5 44t80 35t105 15.5q188 0 324 -148.5t136 -374t-136 -373.5t-324 -148q-86 0 -158 35.5t-101 70.5l-28 37v-553h-348zM461 502q0 -90 58.5 -152.5t136 -62.5t136 62.5t58.5 152.5t-58.5 152.5t-136 62.5t-136 -62.5 t-58.5 -152.5z" />
<glyph unicode="q" horiz-adv-x="1290" d="M61 501.5q0 225.5 136.5 374t324.5 148.5q86 0 158 -36t100 -70l29 -37v123h348v-1434h-348v553q-4 -6 -11 -15.5t-34 -34t-57.5 -44t-79.5 -34.5t-105 -15q-188 0 -324.5 148t-136.5 373.5zM420 502q0 -90 58.5 -152.5t136 -62.5t136 62.5t58.5 152.5t-58.5 152.5 t-136 62.5t-136 -62.5t-58.5 -152.5z" />
<glyph unicode="r" horiz-adv-x="808" d="M113 0v1004h348v-123q10 14 30.5 36.5t92 59.5t153.5 37h41v-359q-41 20 -102 21q-102 0 -158.5 -62.5t-56.5 -183.5v-430h-348z" />
<glyph unicode="s" horiz-adv-x="962" d="M20 174l175 184q8 -12 23 -28.5t65.5 -45t105.5 -28.5q43 0 67.5 18.5t24.5 43t-43 42t-105.5 38t-124 50t-104.5 93t-43 155.5q0 137 116 232.5t315 95.5q119 0 218 -39t140 -76l41 -39l-174 -184q-61 61 -144 62q-43 0 -67.5 -18.5t-24.5 -43t43 -42t105.5 -38 t124 -50.5t104.5 -93.5t43 -155.5q0 -137 -115.5 -232t-314.5 -95q-88 0 -168 20t-129 49t-86 56.5t-51 48.5z" />
<glyph unicode="t" horiz-adv-x="870" d="M41 676v307h72q55 0 89 36t34 97v174h307v-307h205v-307h-205v-287q0 -47 30.5 -74.5t81.5 -27.5q25 0 50.5 5t39.5 11l13 4v-297q-89 -30 -198 -30h-7q-170 0 -264 99t-94 290v307h-154z" />
<glyph unicode="u" horiz-adv-x="1259" d="M113 399v605h348v-543q0 -68 41 -111t102 -43q70 0 117 51.5t47 133.5v512h348v-1004h-348v113q-10 -14 -30.5 -37t-92.5 -59.5t-153 -36.5q-164 0 -271.5 115.5t-107.5 303.5z" />
<glyph unicode="v" horiz-adv-x="1105" d="M-10 1004h368l185 -584l184 584h369l-369 -1004h-369z" />
<glyph unicode="w" horiz-adv-x="1617" d="M-10 1004h358l164 -512l164 512h246l163 -512l164 512h359l-348 -1004h-287l-174 492l-174 -492h-287z" />
<glyph unicode="x" horiz-adv-x="1085" d="M-10 0l317 512l-297 492h379l143 -267l144 267h379l-297 -492l317 -512h-368l-175 287l-174 -287h-368z" />
<glyph unicode="y" horiz-adv-x="1105" d="M-10 1004h368l185 -584l184 584h369l-379 -1004q-84 -223 -189.5 -326.5t-251.5 -103.5q-49 0 -98 8t-72 16l-24 7v307q41 -20 102 -21q107 1 154 93l20 40z" />
<glyph unicode="z" horiz-adv-x="1044" d="M61 0v307l431 389h-410v308h860v-308l-430 -389h451v-307h-902z" />
<glyph unicode="{" horiz-adv-x="880" d="M102 358v308q61 0 102.5 41t41.5 102v246q0 197 93 298t265 101h205v-328h-92q-47 0 -80 -34.5t-33 -87.5v-226q0 -63 -18.5 -113.5t-44 -78t-50 -46t-42.5 -24.5l-19 -4q6 -2 18.5 -6t42 -23.5t53 -46t42 -77t18.5 -113.5v-226q0 -53 33 -87.5t80 -34.5h92v-328h-205 q-172 0 -265 101.5t-93 297.5v246q0 61 -41.5 102t-102.5 41z" />
<glyph unicode="|" horiz-adv-x="829" d="M236 -430v1884h358v-1884h-358z" />
<glyph unicode="}" horiz-adv-x="880" d="M72 -102h92q47 0 79.5 34.5t32.5 87.5v226q0 63 18.5 113.5t44.5 78t50.5 46t42.5 24.5l19 4q-6 2 -18.5 6t-42.5 23.5t-53.5 46t-42 77t-18.5 113.5v226q0 53 -32.5 87.5t-79.5 34.5h-92v328h204q172 0 265.5 -101.5t93.5 -297.5v-246q0 -61 41 -102t102 -41v-308 q-61 0 -102 -41t-41 -102v-246q0 -197 -93 -298t-266 -101h-204v328z" />
<glyph unicode="~" horiz-adv-x="1187" d="M51 573q4 10 10.5 25.5t34 56.5t60 72t90 56.5t123.5 25.5q98 0 203.5 -51t164.5 -51q49 0 95.5 23.5t68.5 45.5l21 23l215 -154q-4 -10 -10.5 -25.5t-34 -56.5t-60.5 -71.5t-90 -56t-123 -25.5q-98 0 -203.5 51t-164.5 51q-49 0 -95.5 -22.5t-68.5 -47.5l-21 -22z" />
<glyph unicode="&#xa2;" horiz-adv-x="1085" d="M61 502q0 168 110 308t280 194v194h317v-194q78 -23 141.5 -64t89.5 -72l25 -28l-205 -215q-6 10 -18.5 25.5t-59.5 41t-106 25.5q-92 0 -153.5 -61.5t-61.5 -153.5t61.5 -153.5t153.5 -61.5q59 0 105 22.5t63 46.5l16 23l205 -215q-8 -12 -26.5 -32.5t-85 -64.5 t-144.5 -67v-205h-317v205q-170 53 -280 193.5t-110 308.5z" />
<glyph unicode="&#xa3;" horiz-adv-x="1228" d="M113 0v338q57 0 90 30.5t33 82.5v122h-123v246h123v164q0 223 137 357.5t375 134.5q129 0 238.5 -49.5t156.5 -98.5l45 -47l-266 -256q-6 8 -17.5 22.5t-51.5 37t-85 22.5q-70 0 -117 -47t-47 -115v-125h318v-246h-318v-122q0 -37 -13 -65t-26 -38l-12 -10h625v-338 h-1065z" />
<glyph unicode="&#xa5;" horiz-adv-x="1413" d="M0 1434h420l287 -553l286 553h420l-377 -676h152v-256h-287v-82h287v-256h-287v-164h-389v164h-287v256h287v82h-287v256h150z" />
<glyph unicode="&#xa8;" horiz-adv-x="942" d="M61 1300.5q0 69.5 52.5 122t122 52.5t122 -52.5t52.5 -122t-52.5 -122t-122 -52.5t-122 52.5t-52.5 122zM532 1300.5q0 69.5 52.5 122t122 52.5t122 -52.5t52.5 -122t-52.5 -122t-122 -52.5t-122 52.5t-52.5 122z" />
<glyph unicode="&#xa9;" horiz-adv-x="1781" d="M113 716.5q0 317.5 225 538t553 220.5t553 -220.5t225 -538t-225 -537.5t-553 -220t-553 220t-225 537.5zM317 716.5q0 -229.5 171 -401.5t402.5 -172t402.5 172t171 401.5t-171 401.5t-402.5 172t-402.5 -172t-171 -401.5zM492 717q0 170 121.5 289.5t297.5 119.5 q66 0 123.5 -16t93 -41t62.5 -49.5t39 -40.5l10 -16l-143 -144q-6 10 -17.5 25.5t-56.5 41t-100 25.5q-78 0 -136.5 -58t-58.5 -136t58.5 -136.5t136.5 -58.5q55 0 98 25.5t59 50.5l17 27l143 -144l-12 -18q-8 -12 -37 -42t-63.5 -53.5t-92 -42t-123.5 -18.5 q-176 0 -297.5 120t-121.5 290z" />
<glyph unicode="&#xaa;" horiz-adv-x="798" d="M72 963q0 78 58 134t157 70l194 31q0 25 -24.5 43.5t-67.5 18.5q-45 0 -84 -15.5t-55 -32.5l-14 -14l-134 133q4 4 11.5 13.5t34 30t58.5 36.5t84 29.5t109 13.5q145 0 226.5 -79t81.5 -218v-379h-226v72q-6 -10 -20.5 -25.5t-64.5 -41t-109 -25.5q-98 0 -156.5 59.5 t-58.5 145.5zM307 973q0 -51 62 -51q39 0 75.5 38.5t36.5 83.5v21l-123 -31q-51 -14 -51 -61z" />
<glyph unicode="&#xab;" horiz-adv-x="1218" d="M72 492l266 368h328l-267 -368l267 -369h-328zM553 492l266 368h328l-266 -368l266 -369h-328z" />
<glyph unicode="&#xac;" horiz-adv-x="1003" d="M72 563v307h860v-542h-307v235h-553z" />
<glyph unicode="&#xad;" horiz-adv-x="890" d="M72 451v307h747v-307h-747z" />
<glyph unicode="&#xae;" horiz-adv-x="1781" d="M113 716.5q0 317.5 225 538t553 220.5t553 -220.5t225 -538t-225 -537.5t-553 -220t-553 220t-225 537.5zM317 716.5q0 -229.5 171 -401.5t403 -172q229 0 399 174.5t170 405.5q0 229 -169 398t-400.5 169t-402.5 -172t-171 -401.5zM573 328v778h359q121 0 204 -79 t83 -187q0 -68 -34 -122t-67 -75l-33 -18l164 -297h-245l-123 225h-72v-225h-236zM809 768h102q31 0 51.5 18.5t20.5 43t-20.5 43t-51.5 18.5h-102v-123z" />
<glyph unicode="&#xb1;" horiz-adv-x="1085" d="M72 0v287h942v-287h-942zM72 676v317h317v297h307v-297h318v-317h-318v-297h-307v297h-317z" />
<glyph unicode="&#xb4;" horiz-adv-x="665" d="M61 1126l175 330h368l-246 -330h-297z" />
<glyph unicode="&#xb5;" d="M113 -430v1434h348v-533q0 -76 40 -120t103.5 -44t108.5 51.5t45 133.5v512h348v-646q0 -61 61 -61l41 10v-297q-51 -31 -133 -30q-59 0 -109.5 15t-78 37.5t-47 46t-25.5 40.5l-6 14q-4 -6 -12.5 -16.5t-38 -37t-64.5 -47t-92 -36.5t-121 -16h-20v-410h-348z" />
<glyph unicode="&#xb8;" horiz-adv-x="634" d="M61 -399l82 133q61 -61 133 -61.5t72 51t-61 51.5l-51 -11l-62 72l92 205h164l-72 -133q8 0 22.5 -2t52.5 -13.5t65.5 -31t51 -58.5t23.5 -90q0 -94 -67.5 -154.5t-188.5 -60.5q-68 0 -132 25.5t-95 50.5z" />
<glyph unicode="&#xba;" horiz-adv-x="819" d="M51 1106q0 139 106.5 243.5t252 104.5t252 -104.5t106.5 -243.5t-106.5 -243.5t-252 -104.5t-252 104.5t-106.5 243.5zM287 1106q0 -53 34.5 -88t88 -35t88 35t34.5 88t-34.5 88t-88 35t-88 -35t-34.5 -88z" />
<glyph unicode="&#xbb;" horiz-adv-x="1218" d="M72 123l266 369l-266 368h327l267 -368l-267 -369h-327zM553 123l266 369l-266 368h328l266 -368l-266 -369h-328z" />
<glyph unicode="&#xf7;" horiz-adv-x="1085" d="M72 481v246h942v-246h-942zM348 215q0 70 56.5 122t138.5 52t138 -52t56 -122t-56 -122t-138 -52t-138.5 52t-56.5 122zM348 993.5q0 69.5 56.5 121.5t138.5 52t138 -52t56 -121.5t-56 -122t-138 -52.5t-138.5 52.5t-56.5 122z" />
<glyph unicode="&#x192;" horiz-adv-x="849" d="M-123 -102q41 -20 103 -21q113 0 133 103l112 593h-123v308h174l41 215q41 209 124 288.5t266 79.5q45 0 91 -7t70 -15l23 -8v-297q-41 20 -103 20q-117 0 -133 -102l-30 -174h184v-308h-236l-122 -634q-41 -209 -124 -289t-266 -80q-45 0 -91 8t-68 16l-25 7v297z" />
<glyph unicode="&#x2c6;" horiz-adv-x="962" d="M61 1126l267 328h307l266 -328h-317l-103 144l-102 -144h-318z" />
<glyph unicode="&#x2da;" horiz-adv-x="655" d="M61 1249.5q0 100.5 77 173t189.5 72.5t189.5 -72.5t77 -173t-77 -173t-189.5 -72.5t-189.5 72.5t-77 173zM246 1249q0 -82 82 -82t82 82t-82 82t-82 -82z" />
<glyph unicode="&#x2dc;" horiz-adv-x="880" d="M61 1126q0 174 63.5 261.5t162.5 87.5q74 0 145.5 -51.5t99.5 -51.5q72 0 72 103h215q0 -174 -63.5 -261.5t-161.5 -87.5q-74 0 -145.5 51.5t-100.5 51.5q-72 0 -72 -103h-215z" />
<glyph unicode="&#x401;" horiz-adv-x="1372" d="M164 0v1434h1106v-328h-717v-225h553v-308h-553v-245h737v-328h-1126zM313 1761.5q0 69.5 52.5 121.5t122 52t122 -52t52.5 -121.5t-52.5 -122t-122 -52.5t-122 52.5t-52.5 122zM784 1761.5q0 69.5 52.5 121.5t122 52t122 -52t52.5 -121.5t-52.5 -122t-122 -52.5 t-122 52.5t-52.5 122z" />
<glyph unicode="&#x402;" horiz-adv-x="1546" d="M0 1085v349h1008v-349h-301v-235q12 8 33.5 22.5t90 37t142.5 22.5q236 0 374 -132t138 -349q0 -223 -137.5 -357.5t-374.5 -134.5h-82v338q96 0 145 41t49 113q0 63 -47 103t-137 40q-92 0 -143 -51t-51 -146v-397h-390v1085h-317z" />
<glyph unicode="&#x403;" horiz-adv-x="1208" d="M164 0v1434h1024v-349h-635v-1085h-389zM522 1597l174 330h369l-246 -330h-297z" />
<glyph unicode="&#x404;" horiz-adv-x="1536" d="M82 717q0 311 231.5 534.5t567.5 223.5q115 0 219 -30t171.5 -72t118 -84t72.5 -72l23 -29l-236 -246q-6 8 -16 20.5t-46 44t-75 56t-102.5 44t-128.5 19.5q-143 0 -239.5 -70.5t-139.5 -174.5h563v-328h-563q43 -104 139 -175t240 -71q109 0 206 46t140 93l43 46 l225 -246q-8 -12 -23.5 -31.5t-72 -69t-122 -87.5t-173 -68.5t-223.5 -30.5q-334 0 -566.5 223.5t-232.5 534.5z" />
<glyph unicode="&#x405;" d="M41 205l225 235q4 -6 14.5 -16t41 -37t64.5 -47.5t85 -36.5t102 -16q82 0 133.5 45t51.5 108q0 39 -37 68t-95.5 48t-130 40.5t-142 54.5t-129 79t-95.5 124t-37 180q0 176 152.5 308.5t390.5 132.5q98 0 185 -21.5t142.5 -51.5t97.5 -59.5t58 -52.5l19 -20l-226 -236 q-10 12 -29.5 30.5t-81 50.5t-124.5 32q-66 0 -110 -37t-44 -86q0 -39 37 -67.5t95.5 -48t129 -41t142 -54.5t130 -79t95.5 -124t37 -180q0 -199 -157 -335t-417 -136q-106 0 -204.5 25.5t-162 61.5t-112.5 72t-72 62z" />
<glyph unicode="&#x406;" horiz-adv-x="716" d="M164 0v1434h389v-1434h-389z" />
<glyph unicode="&#x407;" horiz-adv-x="716" d="M-51 1730.5q0 69.5 52 122t122 52.5t122 -52.5t52 -122t-52 -122t-122 -52.5t-122 52.5t-52 122zM164 0v1434h389v-1434h-389zM420 1730.5q0 69.5 52 122t122 52.5t122 -52.5t52 -122t-52 -122t-122 -52.5t-122 52.5t-52 122z" />
<glyph unicode="&#x408;" horiz-adv-x="1075" d="M-20 143l235 236q51 -72 154 -72q70 0 116.5 51.5t46.5 133.5v942h390v-942q0 -238 -145.5 -385.5t-377.5 -147.5q-78 0 -149.5 19.5t-118.5 46t-83 53t-52 45.5z" />
<glyph unicode="&#x409;" horiz-adv-x="2252" d="M0 0v358q51 -20 92 -20q55 0 94 25.5t73 92t51.5 197.5t17.5 328v453h1065v-430h245q236 0 384.5 -142.5t148.5 -359.5t-148.5 -359.5t-384.5 -142.5h-634v1085h-287v-102q0 -238 -25.5 -417t-68.5 -293.5t-110 -185.5t-140.5 -99.5t-167.5 -28.5q-51 0 -102.5 10.5 t-77.5 20.5zM1393 348h225q68 0 116 46t48 107.5t-48 107.5t-116 46h-225v-307z" />
<glyph unicode="&#x40a;" horiz-adv-x="2283" d="M164 0v1434h389v-451h491v451h390v-430h235q236 0 384.5 -142.5t148.5 -359.5t-148.5 -359.5t-384.5 -142.5h-625v635h-491v-635h-389zM1434 348h215q68 0 115.5 46t47.5 107.5t-48 107.5t-115 46h-215v-307z" />
<glyph unicode="&#x40b;" horiz-adv-x="1597" d="M0 1085v349h1014v-349h-307v-235q12 8 33.5 22.5t90 37t142.5 22.5q512 0 512 -543v-389h-389v399q0 78 -55.5 131.5t-139.5 53.5q-80 0 -137 -47.5t-57 -96.5v-440h-390v1085h-317z" />
<glyph unicode="&#x40c;" horiz-adv-x="1495" d="M164 0v1434h389v-553l471 553h451l-512 -594l553 -840h-451l-358 543l-154 -174v-369h-389zM635 1597l174 330h369l-246 -330h-297z" />
<glyph unicode="&#x40e;" horiz-adv-x="1331" d="M0 1434h420l276 -584l236 584h420l-502 -1065q-84 -174 -216 -281.5t-306 -107.5q-49 0 -95.5 8t-68.5 16l-21 6v338q51 -20 123 -20q82 0 137.5 39t77.5 84l21 41zM326 1925h245q0 -113 113 -113t113 113h245q0 -147 -99 -242.5t-259 -95.5t-259 95.5t-99 242.5z" />
<glyph unicode="&#x40f;" horiz-adv-x="1617" d="M164 0v1434h389v-1086h512v1086h389v-1434h-450v-287h-390v287h-450z" />
<glyph unicode="&#x410;" horiz-adv-x="1515" d="M0 0l543 1434h430l543 -1434h-420l-103 307h-471l-102 -307h-420zM625 614h266l-133 420z" />
<glyph unicode="&#x411;" horiz-adv-x="1423" d="M164 0v1434h1044v-328h-655v-184h276q231 0 371.5 -134.5t140.5 -327t-140.5 -326.5t-371.5 -134h-665zM553 328h256q59 0 101 39t42 94q0 57 -41 95t-102 38h-256v-266z" />
<glyph unicode="&#x412;" horiz-adv-x="1454" d="M164 0v1434h645q221 0 356 -113t135 -266q0 -59 -19 -112.5t-46 -85.5t-53.5 -55.5t-46.5 -33.5l-19 -10q10 -4 27.5 -11.5t61.5 -35t78 -62.5t61.5 -96t27.5 -133q0 -168 -146.5 -294t-375.5 -126h-686zM553 307h266q68 0 111 41t43 102.5t-43 102.5t-111 41h-266v-287z M553 881h215q61 0 97 33.5t36 89t-36 89t-97 33.5h-215v-245z" />
<glyph unicode="&#x413;" horiz-adv-x="1208" d="M164 0v1434h1024v-349h-635v-1085h-389z" />
<glyph unicode="&#x414;" horiz-adv-x="1556" d="M0 -287v635h82l22 22q15 15 49.5 71.5t61.5 123t49.5 179t22.5 239.5v451h1065v-1086h164v-635h-390v287h-737v-287h-389zM471 348h492v737h-287v-102q0 -127 -21.5 -238.5t-51.5 -181t-59.5 -121t-51.5 -73.5z" />
<glyph unicode="&#x415;" horiz-adv-x="1372" d="M164 0v1434h1106v-328h-717v-225h553v-308h-553v-245h737v-328h-1126z" />
<glyph unicode="&#x416;" horiz-adv-x="2170" d="M-20 0l552 840l-512 594h451l420 -492v492h389v-492l420 492h450l-512 -594l553 -840h-450l-359 543l-102 -115v-428h-389v428l-103 115l-358 -543h-450z" />
<glyph unicode="&#x417;" horiz-adv-x="1280" d="M20 205l226 235q14 -14 41.5 -36.5t110.5 -59.5t165 -37q102 0 158.5 43t56.5 101q0 123 -194 122h-185v328h164q88 0 131 32t43 83q0 49 -45 79.5t-139 30.5q-68 0 -132.5 -25.5t-92.5 -51.5l-31 -25l-225 236q6 8 20 22t64.5 52t108 65.5t152.5 51.5t197 24 q242 0 392.5 -124t150.5 -286q0 -109 -54 -185.5t-108 -99.5l-53 -22q10 -4 27.5 -11.5t61.5 -36t78 -65.5t61.5 -102.5t27.5 -143.5q0 -186 -155.5 -313t-428.5 -127q-106 0 -206.5 25.5t-167 61.5t-118.5 72t-77 62z" />
<glyph unicode="&#x418;" horiz-adv-x="1669" d="M164 0v1434h389v-799l614 799h338v-1434h-389v799l-616 -799h-336z" />
<glyph unicode="&#x419;" horiz-adv-x="1669" d="M164 0v1434h389v-799l614 799h338v-1434h-389v799l-616 -799h-336zM481 1925h246q0 -113 112.5 -113t112.5 113h246q0 -147 -99.5 -242.5t-259 -95.5t-259 95.5t-99.5 242.5z" />
<glyph unicode="&#x41a;" horiz-adv-x="1495" d="M164 0v1434h389v-553l471 553h451l-512 -594l553 -840h-451l-358 543l-154 -174v-369h-389z" />
<glyph unicode="&#x41b;" horiz-adv-x="1597" d="M0 0v358q51 -20 92 -20q55 0 94 25.5t73 92t51.5 197.5t17.5 328v453h1106v-1434h-390v1085h-327v-102q0 -238 -25.5 -417t-68.5 -293.5t-110 -185.5t-140.5 -99.5t-167.5 -28.5q-51 0 -102.5 10.5t-77.5 20.5z" />
<glyph unicode="&#x41c;" horiz-adv-x="1904" d="M164 0v1434h348l440 -564l441 564h348v-1434h-389v850l-400 -502l-399 502v-850h-389z" />
<glyph unicode="&#x41d;" horiz-adv-x="1628" d="M164 0v1434h389v-533h522v533h389v-1434h-389v553h-522v-553h-389z" />
<glyph unicode="&#x41e;" horiz-adv-x="1761" d="M82 717q0 311 232.5 534.5t566 223.5t566 -223.5t232.5 -534.5t-232.5 -534.5t-566 -223.5t-566 223.5t-232.5 534.5zM481 717q0 -176 115 -293t285 -117t284.5 117t114.5 293t-114.5 292.5t-284.5 116.5t-285 -116.5t-115 -292.5z" />
<glyph unicode="&#x41f;" horiz-adv-x="1607" d="M164 0v1434h1280v-1434h-389v1085h-502v-1085h-389z" />
<glyph unicode="&#x420;" horiz-adv-x="1423" d="M164 0v1434h645q236 0 384 -142.5t148 -359.5t-148.5 -359.5t-383.5 -142.5h-256v-430h-389zM553 778h235q68 0 116 46t48 107.5t-48 107.5t-116 46h-235v-307z" />
<glyph unicode="&#x421;" horiz-adv-x="1536" d="M82 717q0 311 232.5 534.5t566.5 223.5q115 0 219 -30t171.5 -72t118 -84t72.5 -72l23 -29l-236 -246q-6 8 -16 20.5t-46 44t-75 56t-102.5 44t-128.5 19.5q-176 0 -293 -116.5t-117 -292.5t117 -293t293 -117q109 0 206 46t140 93l43 46l225 -246q-8 -12 -23.5 -31.5 t-72 -69t-122 -87.5t-173 -68.5t-223.5 -30.5q-334 0 -566.5 223.5t-232.5 534.5z" />
<glyph unicode="&#x422;" horiz-adv-x="1269" d="M41 1085v349h1188v-349h-400v-1085h-389v1085h-399z" />
<glyph unicode="&#x423;" horiz-adv-x="1331" d="M0 1434h420l276 -584l236 584h420l-502 -1065q-84 -174 -216 -281.5t-306 -107.5q-49 0 -95.5 8t-68.5 16l-21 6v338q51 -20 123 -20q82 0 137.5 39t77.5 84l21 41z" />
<glyph unicode="&#x424;" horiz-adv-x="1843" d="M72 737.5q0 241.5 184 413.5t471 180v154h389v-154q287 -8 471.5 -180t184.5 -413.5t-184.5 -413.5t-471.5 -181v-184h-389v184q-287 8 -471 180.5t-184 414zM461 737.5q0 -114.5 71.5 -186.5t194.5 -80v533q-123 -8 -194.5 -80t-71.5 -186.5zM1116 471q123 8 194.5 80 t71.5 186.5t-71.5 186t-194.5 80.5v-533z" />
<glyph unicode="&#x425;" horiz-adv-x="1454" d="M10 0l471 748l-430 686h430l246 -420l246 420h430l-430 -686l471 -748h-430l-287 481l-287 -481h-430z" />
<glyph unicode="&#x426;" horiz-adv-x="1638" d="M164 0v1434h389v-1086h481v1086h389v-1086h164v-635h-389v287h-1034z" />
<glyph unicode="&#x427;" horiz-adv-x="1536" d="M143 993v441h389v-441q0 -104 59.5 -164.5t160.5 -60.5q61 0 119.5 17.5t84.5 35.5l27 19v594h389v-1434h-389v481q-133 -61 -307 -61q-248 0 -390.5 149.5t-142.5 423.5z" />
<glyph unicode="&#x428;" horiz-adv-x="2211" d="M164 0v1434h389v-1086h358v1086h389v-1086h359v1086h389v-1434h-1884z" />
<glyph unicode="&#x429;" horiz-adv-x="2263" d="M164 0v1434h389v-1086h358v1086h389v-1086h359v1086h389v-1086h164v-633h-389v285h-1659z" />
<glyph unicode="&#x42a;" horiz-adv-x="1556" d="M0 1085v349h707v-430h235q236 0 384.5 -142.5t148.5 -359.5t-148.5 -359.5t-384.5 -142.5h-625v1085h-317zM707 348h215q68 0 115.5 46t47.5 107.5t-48 107.5t-115 46h-215v-307z" />
<glyph unicode="&#x42b;" horiz-adv-x="2017" d="M164 0v1434h389v-430h235q236 0 384.5 -142.5t148.5 -359.5t-148.5 -359.5t-384.5 -142.5h-624zM553 348h215q68 0 116 46t48 107.5t-48 107.5t-116 46h-215v-307zM1464 0v1434h389v-1434h-389z" />
<glyph unicode="&#x42c;" horiz-adv-x="1423" d="M164 0v1434h389v-430h256q236 0 384 -142.5t148 -359.5t-148 -359.5t-384 -142.5h-645zM553 348h235q68 0 116 46t48 107.5t-48 107.5t-116 46h-235v-307z" />
<glyph unicode="&#x42d;" horiz-adv-x="1536" d="M41 246l225 246q6 -8 17.5 -20.5t49.5 -44.5t80 -56.5t107.5 -44t134.5 -19.5q143 0 239.5 71t139.5 175h-563v328h563q-43 104 -139 174.5t-240 70.5q-66 0 -128 -19.5t-104 -46t-74 -53t-46 -44.5l-16 -21l-236 246q8 12 23.5 31.5t71 68.5t120 87t169.5 69t220 31 q336 0 567.5 -223.5t231.5 -534.5t-232.5 -534.5t-566.5 -223.5q-117 0 -223 29.5t-175 71.5t-120 84t-74 73z" />
<glyph unicode="&#x42e;" horiz-adv-x="2263" d="M164 0v1434h389v-533h174q57 242 250.5 408t466.5 166q309 0 523 -218.5t214 -540t-214 -539.5t-523 -218q-274 0 -468 169t-249 425h-174v-553h-389zM1096 717q0 -180 102 -295t245.5 -115t246 115t102.5 295t-102.5 294.5t-246 114.5t-245.5 -114.5t-102 -294.5z" />
<glyph unicode="&#x42f;" horiz-adv-x="1474" d="M61 0l297 522q-10 4 -26.5 13.5t-58.5 46t-74.5 80t-59 119t-26.5 161.5q0 209 147.5 350.5t374.5 141.5h676v-1434h-389v451h-205l-246 -451h-410zM502 942.5q0 -61.5 43 -102.5t110 -41h267v286h-267q-68 0 -110.5 -40.5t-42.5 -102z" />
<glyph unicode="&#x430;" horiz-adv-x="1126" d="M51 266q0 123 80 205t227 113l287 61q0 41 -37 72t-106 31q-59 0 -113.5 -26t-77.5 -50l-24 -27l-174 184q6 8 16 21.5t49 46.5t84 58.5t118 47t152 21.5q201 0 331 -118t130 -283v-623h-348v113q-10 -14 -30.5 -37t-89 -59.5t-146.5 -36.5q-143 0 -235.5 83.5 t-92.5 202.5zM399 328q1 -82 93 -82q63 0 108 49t45 125v31l-153 -31q-39 -8 -66 -35t-27 -57z" />
<glyph unicode="&#x431;" horiz-adv-x="1239" d="M72 635q0 358 129 534.5t383 233.5q104 25 195 54.5t130 45.5l37 19l158 -265q-100 -59 -387 -131q-119 -31 -205 -109.5t-102 -166.5q12 12 34.5 30.5t95 50.5t146.5 32q193 0 332 -144.5t139 -347.5q0 -209 -147.5 -350t-374.5 -141q-252 0 -407.5 174t-155.5 481z M451 471q0 -76 52 -130t121.5 -54t122 54t52.5 130t-52.5 130t-122 54t-121.5 -54t-52 -130z" />
<glyph unicode="&#x432;" horiz-adv-x="1136" d="M113 0v1004h532q170 0 269.5 -82t99.5 -195q0 -68 -34 -119t-67 -67l-32 -19l18 -6q12 -4 42 -22.5t53.5 -42t42 -64.5t18.5 -90q0 -129 -99.5 -213t-289.5 -84h-553zM461 246h164q82 0 82 82t-82 82h-164v-164zM461 614h143q31 0 51.5 20.5t20.5 51.5q0 29 -20.5 50.5 t-51.5 21.5h-143v-144z" />
<glyph unicode="&#x433;" horiz-adv-x="921" d="M113 0v1004h778v-328h-430v-676h-348z" />
<glyph unicode="&#x434;" horiz-adv-x="1208" d="M-10 -225v532h61q6 6 16.5 17.5t37 53.5t47 91t37 131t16.5 172v232h827v-697h125v-532h-348v225h-471v-225h-348zM399 307h287v389h-174q0 -119 -28.5 -216t-57.5 -136z" />
<glyph unicode="&#x435;" horiz-adv-x="1187" d="M61 502q0 215 156 368.5t377 153.5t371.5 -146.5t150.5 -355.5l-10 -112h-686q8 -59 71.5 -106.5t163.5 -47.5q63 0 119.5 25.5t81.5 50.5l25 26l153 -225q-6 -6 -18 -16.5t-53 -37t-86.5 -47t-117 -36.5t-145.5 -16q-236 0 -394.5 152.5t-158.5 369.5zM420 614h348 q-16 63 -61 103.5t-113 40.5t-113 -40t-61 -104z" />
<glyph unicode="&#x436;" horiz-adv-x="1679" d="M-20 0l378 573l-368 431h399l266 -318v318h349v-318l266 318h399l-369 -431l379 -573h-379l-235 358l-61 -69v-289h-349v289l-61 69l-236 -358h-378z" />
<glyph unicode="&#x437;" horiz-adv-x="972" d="M10 174l174 184q8 -12 23.5 -28.5t72 -45t119.5 -28.5q113 0 113 72q0 70 -113 69h-92v228h92q43 0 68 18.5t25 43t-25 43t-68 18.5q-45 0 -91 -15.5t-70 -32.5l-23 -14l-174 184l17 16q10 11 48.5 37.5t82.5 47t118 37t154 16.5q182 0 295.5 -91t113.5 -206 q0 -78 -44 -131t-87 -68l-43 -16q8 -2 21.5 -6t46.5 -21.5t58.5 -41t47 -67.5t21.5 -100q0 -117 -117 -206.5t-313 -89.5q-88 0 -168 20t-129 49t-86 56.5t-53 48.5z" />
<glyph unicode="&#x438;" d="M113 0v1004h348v-472l358 472h297v-1004h-348v471l-358 -471h-297z" />
<glyph unicode="&#x439;" d="M113 0v1004h348v-472l358 472h297v-1004h-348v471l-358 -471h-297zM266 1454h246q0 -45 28.5 -73.5t73.5 -28.5t74 28.5t29 73.5h246q0 -139 -98.5 -233.5t-250 -94.5t-250 94.5t-98.5 233.5z" />
<glyph unicode="&#x43a;" horiz-adv-x="1167" d="M113 0v1004h348v-349l297 349h399l-369 -431l379 -573h-379l-235 358l-92 -102v-256h-348z" />
<glyph unicode="&#x43b;" horiz-adv-x="1208" d="M-10 0v307q31 -10 61 -10q57 0 89 30.5t53.5 137t21.5 303.5v236h860v-1004h-348v696h-195q0 -209 -26.5 -354t-78.5 -225t-117.5 -114t-155.5 -34q-41 0 -82 8.5t-62 14.5z" />
<glyph unicode="&#x43c;" horiz-adv-x="1392" d="M113 0v1004h297l276 -349l277 349h297v-1004h-349v512l-225 -287l-225 287v-512h-348z" />
<glyph unicode="&#x43d;" horiz-adv-x="1239" d="M113 0v1004h348v-349h297v349h348v-1004h-348v348h-297v-348h-348z" />
<glyph unicode="&#x43e;" d="M61 502q0 209 163 365.5t390.5 156.5t390 -156.5t162.5 -365.5t-162.5 -365.5t-390 -156.5t-390.5 156.5t-163 365.5zM420 502q0 -90 58.5 -152.5t136 -62.5t136 62.5t58.5 152.5t-58.5 152.5t-136 62.5t-136 -62.5t-58.5 -152.5z" />
<glyph unicode="&#x43f;" horiz-adv-x="1239" d="M113 0v1004h993v-1004h-348v696h-297v-696h-348z" />
<glyph unicode="&#x440;" horiz-adv-x="1290" d="M113 -430v1434h348v-123q4 6 11 15t33.5 33.5t57.5 44t80 35t105 15.5q188 0 324 -148.5t136 -374t-136 -373.5t-324 -148q-86 0 -158 35.5t-101 70.5l-28 37v-553h-348zM461 502q0 -90 58.5 -152.5t136 -62.5t136 62.5t58.5 152.5t-58.5 152.5t-136 62.5t-136 -62.5 t-58.5 -152.5z" />
<glyph unicode="&#x441;" horiz-adv-x="1105" d="M61 502q0 209 163 365.5t390 156.5q80 0 154 -21.5t122 -51t85 -59.5t53 -52l16 -21l-204 -215q-8 12 -23.5 30.5t-69 50.5t-112.5 32q-92 0 -153.5 -61.5t-61.5 -153.5t61.5 -153.5t153.5 -61.5q59 0 110.5 28.5t73.5 57.5l21 26l204 -215q-6 -8 -17 -22.5t-51 -49 t-86 -61t-121 -49t-155 -22.5q-227 0 -390 156.5t-163 365.5z" />
<glyph unicode="&#x442;" horiz-adv-x="1003" d="M20 676v328h943v-328h-297v-676h-349v676h-297z" />
<glyph unicode="&#x443;" horiz-adv-x="1105" d="M-10 1004h368l185 -584l184 584h369l-379 -1004q-84 -223 -189.5 -326.5t-251.5 -103.5q-49 0 -98 8t-72 16l-24 7v307q41 -20 102 -21q107 1 154 93l20 40z" />
<glyph unicode="&#x444;" horiz-adv-x="1597" d="M61 491.5q0 208.5 159 363.5t394 169v410h349v-410q236 -14 394.5 -169t158.5 -363.5t-159 -363.5t-394 -169v-389h-349v389q-236 14 -394.5 169t-158.5 363.5zM410 492q0 -96 55 -157t149 -69v451q-94 -8 -149 -66.5t-55 -158.5zM963 266q94 8 149 67.5t55 158t-55 158 t-149 67.5v-451z" />
<glyph unicode="&#x445;" horiz-adv-x="1085" d="M-10 0l317 512l-297 492h379l143 -267l144 267h379l-297 -492l317 -512h-368l-175 287l-174 -287h-368z" />
<glyph unicode="&#x446;" d="M113 0v1004h348v-697h256v697h348v-697h133v-532h-348v225h-737z" />
<glyph unicode="&#x447;" horiz-adv-x="1167" d="M92 645v359h348v-318q0 -53 35 -88t88 -35q37 0 68 10.5t43 20.5l12 10v400h348v-1004h-348v303q-94 -57 -215 -57q-170 0 -274.5 108.5t-104.5 290.5z" />
<glyph unicode="&#x448;" horiz-adv-x="1699" d="M113 0v1004h348v-697h205v697h348v-697h205v697h348v-1004h-1454z" />
<glyph unicode="&#x449;" horiz-adv-x="1751" d="M113 0v1004h348v-697h205v697h348v-697h205v697h348v-697h133v-532h-348v225h-1239z" />
<glyph unicode="&#x44a;" horiz-adv-x="1187" d="M10 676v328h563v-287h134q188 0 298.5 -100.5t110.5 -258t-110.5 -258t-298.5 -100.5h-482v676h-215zM573 266h103q39 0 65.5 26.5t26.5 65.5t-26.5 66t-65.5 27h-103v-185z" />
<glyph unicode="&#x44b;" horiz-adv-x="1597" d="M113 0v1004h348v-287h133q188 0 299 -100.5t111 -258t-111 -258t-299 -100.5h-481zM461 266h102q39 0 65.5 26.5t26.5 65.5t-26.5 66t-65.5 27h-102v-185zM1116 0v1004h348v-1004h-348z" />
<glyph unicode="&#x44c;" horiz-adv-x="1095" d="M113 0v1004h348v-287h153q188 0 299 -100.5t111 -258t-110.5 -258t-299.5 -100.5h-501zM461 266h123q39 0 65.5 26.5t26.5 65.5t-26.5 66t-65.5 27h-123v-185z" />
<glyph unicode="&#x44d;" horiz-adv-x="1105" d="M41 184l184 195q10 -12 29.5 -30.5t78 -50.5t118.5 -32q43 0 79.5 12.5t59 31t39 37t22.5 30.5l6 12h-340v225h340q-2 4 -6 13.5t-22.5 30t-39 37t-58 29.5t-80.5 13q-59 0 -115.5 -28.5t-83.5 -57.5l-27 -26l-184 194q6 8 17.5 22.5t51.5 49.5t86 61.5t120.5 49 t154.5 22.5q227 0 390 -156.5t163 -365.5t-163 -365.5t-390 -156.5q-80 0 -153.5 21.5t-122 51t-85 59t-53.5 52.5z" />
<glyph unicode="&#x44e;" horiz-adv-x="1699" d="M113 0v1004h348v-349h112q59 160 191.5 264.5t320.5 104.5q221 0 377 -153.5t156 -368.5t-155.5 -368.5t-377.5 -153.5q-188 0 -320 104t-192 264h-112v-348h-348zM901 502q0 -90 56.5 -152.5t128 -62.5t128 62.5t56.5 152.5t-56.5 152.5t-128 62.5t-128 -62.5 t-56.5 -152.5z" />
<glyph unicode="&#x44f;" horiz-adv-x="1136" d="M41 0l215 348q-6 4 -18.5 10.5t-42 32t-53 57t-42 85t-18.5 112.5q0 150 115 254.5t295 104.5h512v-1004h-349v287h-82l-174 -287h-358zM430 645q0 -43 28.5 -67.5t73.5 -24.5h123v184h-123q-45 0 -73.5 -24.5t-28.5 -67.5z" />
<glyph unicode="&#x451;" horiz-adv-x="1187" d="M61 502q0 215 156 368.5t377 153.5t371.5 -146.5t150.5 -355.5l-10 -112h-686q8 -59 71.5 -106.5t163.5 -47.5q63 0 119.5 25.5t81.5 50.5l25 26l153 -225q-6 -6 -18 -16.5t-53 -37t-86.5 -47t-117 -36.5t-145.5 -16q-236 0 -394.5 152.5t-158.5 369.5zM180 1300.5 q0 69.5 52.5 122t122 52.5t121.5 -52.5t52 -122t-52 -122t-121.5 -52.5t-122 52.5t-52.5 122zM420 614h348q-16 63 -61 103.5t-113 40.5t-113 -40t-61 -104zM651 1300.5q0 69.5 52.5 122t122 52.5t121.5 -52.5t52 -122t-52 -122t-121.5 -52.5t-122 52.5t-52.5 122z" />
<glyph unicode="&#x452;" d="M-10 993v307h153v134h349v-134h215v-307h-215v-215q12 16 33.5 40t96 64t156.5 40q162 0 265.5 -122t103.5 -329q0 -512 -522 -512v328q174 0 174 174q0 61 -36 97t-97 36q-78 0 -126 -52.5t-48 -142.5v-399h-349v993h-153z" />
<glyph unicode="&#x453;" horiz-adv-x="921" d="M113 0v1004h778v-328h-430v-676h-348zM338 1126l174 330h369l-246 -330h-297z" />
<glyph unicode="&#x454;" horiz-adv-x="1116" d="M61 502q0 209 163 365.5t390 156.5q80 0 154 -21.5t122 -51t85 -59.5t53 -52l16 -21l-174 -184q-2 4 -8 13t-27.5 29.5t-46 37t-66.5 30t-87 13.5q-43 0 -81 -14.5t-61.5 -36t-41 -43t-25.5 -35.5l-6 -15h348v-225h-348q2 -6 7 -15t24.5 -34t42 -44.5t60.5 -34.5t81 -15 q74 0 132 30.5t81 61.5l22 31l185 -185q-6 -8 -18.5 -22.5t-54.5 -49t-89 -61t-123 -49t-156 -22.5q-227 0 -390 156.5t-163 365.5z" />
<glyph unicode="&#x455;" horiz-adv-x="962" d="M20 174l175 184q8 -12 23 -28.5t65.5 -45t105.5 -28.5q43 0 67.5 18.5t24.5 43t-43 42t-105.5 38t-124 50t-104.5 93t-43 155.5q0 137 116 232.5t315 95.5q119 0 218 -39t140 -76l41 -39l-174 -184q-61 61 -144 62q-43 0 -67.5 -18.5t-24.5 -43t43 -42t105.5 -38 t124 -50.5t104.5 -93.5t43 -155.5q0 -137 -115.5 -232t-314.5 -95q-88 0 -168 20t-129 49t-86 56.5t-51 48.5z" />
<glyph unicode="&#x456;" horiz-adv-x="614" d="M102 1300.5q0 77.5 55.5 131t139.5 53.5t139.5 -53.5t55.5 -131t-55.5 -131t-139.5 -53.5t-139.5 53.5t-55.5 131zM123 0v1004h348v-1004h-348z" />
<glyph unicode="&#x457;" horiz-adv-x="655" d="M-92 1290.5q0 69.5 52 121.5t122 52t122 -52t52 -121.5t-52 -122t-122 -52.5t-122 52.5t-52 122zM143 0v1004h349v-1004h-349zM379 1290.5q0 69.5 52 121.5t122 52t122 -52t52 -121.5t-52 -122t-122 -52.5t-122 52.5t-52 122z" />
<glyph unicode="&#x458;" horiz-adv-x="614" d="M-92 -92q51 -20 102 -21q47 0 80 34t33 79v1004h348v-1055q0 -176 -98.5 -277.5t-259.5 -101.5q-55 0 -106.5 8t-76.5 16l-22 7v307zM102 1300.5q0 77.5 55.5 131t139.5 53.5t139.5 -53.5t55.5 -131t-55.5 -131t-139.5 -53.5t-139.5 53.5t-55.5 131z" />
<glyph unicode="&#x459;" horiz-adv-x="1679" d="M-10 0v307q31 -10 61 -10q57 0 89 30.5t53.5 137t21.5 303.5v236h840v-308h143q195 0 302.5 -95t107.5 -253t-107.5 -253t-302.5 -95h-491v696h-175q0 -209 -26.5 -354t-78.5 -225t-117.5 -114t-155.5 -34q-41 0 -82 8.5t-62 14.5zM1055 266h112q92 0 92.5 82t-92.5 82 h-112v-164z" />
<glyph unicode="&#x45a;" horiz-adv-x="1699" d="M113 0v1004h348v-308h266v308h348v-308h144q195 0 302 -95t107 -253t-107.5 -253t-301.5 -95h-492v389h-266v-389h-348zM1075 266h113q92 0 92 82t-92 82h-113v-164z" />
<glyph unicode="&#x45b;" horiz-adv-x="1280" d="M-10 993v307h153v134h349v-134h215v-307h-215v-215q12 16 33.5 40t96 64t156.5 40q162 0 265.5 -119t103.5 -311v-492h-348v430q0 76 -40 120t-104 44q-72 0 -117.5 -52.5t-45.5 -142.5v-399h-349v993h-153z" />
<glyph unicode="&#x45c;" horiz-adv-x="1167" d="M113 0v1004h348v-349l297 349h399l-369 -431l379 -573h-379l-235 358l-92 -102v-256h-348zM451 1126l174 330h368l-245 -330h-297z" />
<glyph unicode="&#x45e;" horiz-adv-x="1105" d="M-10 1004h368l185 -584l184 584h369l-379 -1004q-84 -223 -189.5 -326.5t-251.5 -103.5q-49 0 -98 8t-72 16l-24 7v307q41 -20 102 -21q107 1 154 93l20 40zM195 1454h245q0 -45 28 -73.5t75 -28.5t74.5 28.5t27.5 73.5h246q0 -139 -98.5 -233.5t-250 -94.5t-249.5 94.5 t-98 233.5z" />
<glyph unicode="&#x45f;" horiz-adv-x="1228" d="M113 0v1004h348v-697h287v697h348v-1004h-318v-225h-348v225h-317z" />
<glyph unicode="&#x490;" horiz-adv-x="1208" d="M164 0v1434h655v266h369v-615h-635v-1085h-389z" />
<glyph unicode="&#x491;" horiz-adv-x="921" d="M113 0v1004h440v204h338v-532h-430v-676h-348z" />
<glyph unicode="&#x2000;" horiz-adv-x="967" />
<glyph unicode="&#x2001;" horiz-adv-x="1935" />
<glyph unicode="&#x2002;" horiz-adv-x="967" />
<glyph unicode="&#x2003;" horiz-adv-x="1935" />
<glyph unicode="&#x2004;" horiz-adv-x="645" />
<glyph unicode="&#x2005;" horiz-adv-x="483" />
<glyph unicode="&#x2006;" horiz-adv-x="322" />
<glyph unicode="&#x2007;" horiz-adv-x="322" />
<glyph unicode="&#x2008;" horiz-adv-x="241" />
<glyph unicode="&#x2009;" horiz-adv-x="387" />
<glyph unicode="&#x200a;" horiz-adv-x="107" />
<glyph unicode="&#x2010;" horiz-adv-x="890" d="M72 451v307h747v-307h-747z" />
<glyph unicode="&#x2011;" horiz-adv-x="890" d="M72 451v307h747v-307h-747z" />
<glyph unicode="&#x2012;" horiz-adv-x="890" d="M72 451v307h747v-307h-747z" />
<glyph unicode="&#x2013;" horiz-adv-x="1064" d="M72 461v287h921v-287h-921z" />
<glyph unicode="&#x2014;" horiz-adv-x="1556" d="M72 461v287h1413v-287h-1413z" />
<glyph unicode="&#x2018;" horiz-adv-x="593" d="M41 1014l297 461l215 -123l-225 -502z" />
<glyph unicode="&#x2019;" horiz-adv-x="593" d="M41 973l225 502l287 -164l-297 -461z" />
<glyph unicode="&#x201a;" horiz-adv-x="583" d="M-10 -143l235 491l277 -164l-287 -450z" />
<glyph unicode="&#x201c;" horiz-adv-x="1024" d="M41 1014l297 461l194 -113l-225 -502zM492 1014l296 461l195 -113l-225 -502z" />
<glyph unicode="&#x201d;" horiz-adv-x="1024" d="M41 973l225 502l266 -154l-296 -461zM492 973l225 502l266 -154l-297 -461z" />
<glyph unicode="&#x201e;" horiz-adv-x="1003" d="M-20 -154l225 502l266 -153l-297 -461zM430 -154l225 502l267 -153l-297 -461z" />
<glyph unicode="&#x2020;" horiz-adv-x="993" d="M102 911v267h246v256h297v-256h246v-267h-246v-624h-297v624h-246z" />
<glyph unicode="&#x2021;" horiz-adv-x="993" d="M102 512v266h246v164h-246v266h246v226h297v-226h246v-266h-246v-164h246v-266h-246v-225h-297v225h-246z" />
<glyph unicode="&#x2022;" horiz-adv-x="901" d="M174 491.5q0 114.5 81 195.5t195.5 81t195.5 -81t81 -195.5t-81 -195.5t-195.5 -81t-195.5 81t-81 195.5z" />
<glyph unicode="&#x2026;" horiz-adv-x="1699" d="M82 164q0 78 55.5 131t139 53t139 -53t55.5 -131t-55.5 -131t-139 -53t-139 53t-55.5 131zM655 164q0 78 55.5 131t139.5 53t139 -53t55 -131t-55 -131t-139 -53t-139.5 53t-55.5 131zM1229 164q0 78 55 131t139 53t139.5 -53t55.5 -131t-55.5 -131t-139.5 -53t-139 53 t-55 131z" />
<glyph unicode="&#x202f;" horiz-adv-x="387" />
<glyph unicode="&#x2030;" horiz-adv-x="2560" d="M51 1116q0 139 108.5 243.5t260 104.5t260 -104.5t108.5 -243.5t-108.5 -243.5t-260 -104.5t-260 104.5t-108.5 243.5zM266 0l901 1434h328l-901 -1434h-328zM297 1116q0 -53 35 -88t88 -35t88 35t35 88t-35 88t-88 35t-88 -35t-35 -88zM963 317.5q0 139.5 108.5 244 t260 104.5t260 -104.5t108.5 -244t-108.5 -244t-260 -104.5t-260 104.5t-108.5 244zM1208 317.5q0 -53.5 35 -88t88 -34.5t88 34.5t35 88t-35 88t-88 34.5t-88 -34.5t-35 -88zM1772 317.5q0 139.5 108.5 244t260 104.5t260 -104.5t108.5 -244t-108.5 -244t-260 -104.5 t-260 104.5t-108.5 244zM2017 317.5q0 -53.5 35 -88t88 -34.5t88 34.5t35 88t-35 88t-88 34.5t-88 -34.5t-35 -88z" />
<glyph unicode="&#x2039;" horiz-adv-x="757" d="M72 492l266 368h348l-266 -368l266 -369h-348z" />
<glyph unicode="&#x203a;" horiz-adv-x="757" d="M72 123l266 369l-266 368h348l266 -368l-266 -369h-348z" />
<glyph unicode="&#x2044;" horiz-adv-x="481" d="M-369 0l891 1434h328l-891 -1434h-328z" />
<glyph unicode="&#x205f;" horiz-adv-x="483" />
<glyph unicode="&#x20ac;" horiz-adv-x="1546" d="M61 451v204h154v123h-154v205h185q8 20 25.5 53t80 118t137 149.5t202.5 118t272 53.5q102 0 195 -25t151.5 -59.5t102.5 -68.5t63 -58l20 -25l-215 -225q-12 14 -35.5 36.5t-101.5 59.5t-160 37q-100 0 -179 -41t-108 -82l-30 -41h338v-205h-400v-123h400v-204h-338 q4 -6 11 -17.5t35.5 -40t61.5 -50t89.5 -39t119.5 -17.5q82 0 155.5 35.5t106.5 70.5l35 37l215 -225q-6 -10 -19.5 -26.5t-61.5 -58.5t-104.5 -75t-150.5 -59.5t-196 -26.5q-104 0 -200.5 26.5t-166.5 70.5t-130 96.5t-99 104.5t-68 96t-41 71l-12 27h-185z" />
<glyph unicode="&#x20b4;" horiz-adv-x="1351" d="M82 451v204h1188v-204h-656q-10 -10 -10 -41q0 -49 44 -86t110 -37q63 0 124.5 23.5t92.5 45.5l29 25l204 -207q-6 -8 -17 -22.5t-55 -52.5t-95.5 -65.5t-138.5 -51t-185 -23.5q-238 0 -390.5 132t-152.5 308v52h-92zM82 778v205h655q10 10 11 41q0 49 -43 86t-111 37 q-63 0 -124.5 -23.5t-92.5 -46.5l-29 -24l-205 207q6 8 17.5 22t55.5 52t95 65.5t138.5 51.5t185.5 24q238 0 390.5 -132.5t152.5 -308.5v-51h92v-205h-1188z" />
<glyph unicode="&#x20bd;" horiz-adv-x="1474" d="M92 174v277h144v92h-144v276h144v615h634q240 0 386.5 -130t146.5 -320.5t-142.5 -315.5t-386.5 -125h-249v-92h409v-277h-409v-174h-389v174h-144zM625 819h235q68 0 111 41t43 102.5t-43 102.5t-111 41h-235v-287z" />
<glyph unicode="&#x2122;" horiz-adv-x="1566" d="M20 1208v226h580v-226h-170v-430h-235v430h-175zM676 778v656h215l184 -236l185 236h215v-656h-236v318l-164 -205l-164 205v-318h-235z" />
<glyph unicode="&#x2248;" horiz-adv-x="1187" d="M51 358q2 10 9.5 25.5t33 56.5t57 72t90 56.5t128.5 25.5q98 0 203.5 -56.5t164.5 -56.5q49 0 93 25.5t63 50.5l18 27l226 -164q-2 -10 -9.5 -25.5t-33 -56.5t-57 -71.5t-90 -56.5t-128.5 -26q-98 0 -203.5 56.5t-164.5 56.5q-49 0 -93.5 -25.5t-62.5 -50.5l-19 -26z M51 788q2 10 9.5 25.5t33 56.5t57 72t90 56.5t128.5 25.5q98 0 203.5 -56.5t164.5 -56.5q49 0 93 26t63 50l18 27l226 -164q-2 -10 -9.5 -25.5t-33 -56.5t-57 -71.5t-90 -56.5t-128.5 -26q-98 0 -203.5 56.5t-164.5 56.5q-49 0 -93.5 -25.5t-62.5 -50.5l-19 -26z" />
<glyph unicode="&#x2260;" horiz-adv-x="1013" d="M72 246v286h245l62 144h-307v287h420l61 163h317l-61 -163h133v-287h-246l-61 -144h307v-286h-420l-61 -164h-318l62 164h-133z" />
<glyph unicode="&#x2264;" horiz-adv-x="1064" d="M72 0v266h921v-266h-921zM72 686v205l921 369v-297l-481 -175l481 -174v-297z" />
<glyph unicode="&#x2265;" horiz-adv-x="1064" d="M72 0v266h921v-266h-921zM72 317v297l481 174l-481 175v297l921 -369v-205z" />
<glyph unicode="&#x25fc;" horiz-adv-x="1004" d="M0 0v1005h1005v-1005h-1005z" />
</font>
</defs>
</svg>
